<?xml version="1.0" encoding="utf-8"?>
<!-- Generator: Adobe Illustrator 19.0.1, SVG Export Plug-In . SVG Version: 6.00 Build 0)  -->
<svg version="1.1" id="Layer_1" xmlns="http://www.w3.org/2000/svg" xmlns:xlink="http://www.w3.org/1999/xlink" x="0px" y="0px"
	 width="355.26px" height="123.44px" viewBox="0 0 355.26 123.44" enable-background="new 0 0 355.26 123.44" xml:space="preserve">
<g>
	<g>
		<path fill="#000000" d="M19.95,54.31H0v48.89h10.74V88.54h8.16c10.95,0,19.74-5.87,19.74-17.18v-0.14
			C38.65,61.23,31.6,54.31,19.95,54.31z M27.76,71.56c0,4.19-3.14,7.4-8.51,7.4h-8.51V64.02h8.3c5.37,0,8.72,2.58,8.72,7.41V71.56z"
			/>
		<polygon fill="#000000" points="58.46,83.37 81.49,83.37 81.49,73.8 58.46,73.8 58.46,63.88 84.63,63.88 84.63,54.31 47.79,54.31 
			47.79,103.21 84.98,103.21 84.98,93.64 58.46,93.64 		"/>
		<path fill="#000000" d="M136.46,70.58v-0.13c0-4.62-1.46-8.46-4.19-11.18c-3.21-3.22-8.02-4.96-14.23-4.96H95.72v48.89h10.74
			V87.56h8.44l10.47,15.65h12.56L126,85.75C132.21,83.44,136.46,78.48,136.46,70.58z M125.58,71.15c0,4.11-3,6.91-8.23,6.91h-10.88
			V64.02h10.68c5.23,0,8.44,2.38,8.44,6.99V71.15z"/>
		<polygon fill="#000000" points="343.67,54.31 330.84,74.99 318,54.31 306.42,54.31 306.42,103.21 316.96,103.21 316.96,71.49 
			330.56,92.17 330.84,92.17 344.59,71.29 344.59,103.21 355.26,103.21 355.26,54.31 		"/>
		<path fill="#000000" d="M295.54,70.58v-0.13c0-4.62-1.47-8.46-4.19-11.18c-3.21-3.22-8.02-4.96-14.23-4.96h-17.52l7.52-5.16
			c3.13-2.14,2.89-2.56-0.53-0.92l-28.76,13.78c-0.41-0.54-0.84-1.08-1.29-1.6l28.37-39.68c2.2-3.09,1.84-3.39-0.81-0.68
			l-34.08,34.86c-0.59-0.35-1.19-0.68-1.81-0.99l8.57-30.75c1.02-3.65,0.57-3.82-0.99-0.36l-13.18,29.07
			c-0.66-0.16-1.34-0.3-2.02-0.41l-3.75-48.65c-0.28-3.78-0.75-3.78-1.05,0l-3.73,48.64c-0.68,0.11-1.36,0.25-2.02,0.41
			l-13.18-29.06c-1.57-3.46-2.01-3.29-0.99,0.36l8.56,30.74c-0.62,0.31-1.22,0.64-1.81,0.99l-34.09-34.85
			c-2.65-2.71-3.02-2.41-0.81,0.68L196.1,60.4c-0.45,0.52-0.88,1.06-1.29,1.6l-10.27-4.92v-2.77h-5.78l-12.7-6.08
			c-3.42-1.64-3.66-1.23-0.53,0.92l7.53,5.17h-0.84h-24.88v48.89h10.74V84.28h23.3V74.5h-23.3V64.08h26.44v-1.33v-0.57l7.29,5
			c-1.44,3.29-2.24,6.92-2.24,10.73c0,14.78,11.97,26.78,26.74,26.78c5.47,0,10.56-1.65,14.8-4.48c0,0,14.52,14.88,23.67,23.23
			l-19.11-27.07c0.47-0.5,0.93-1.01,1.37-1.55l43.93,21.08c3.42,1.64,3.66,1.23,0.53-0.92l-15.97-10.95V87.56h8.44l10.47,15.65H297
			l-11.93-17.46C291.28,83.44,295.54,78.48,295.54,70.58z M216.32,93.96c-8.86,0-16.03-7.19-16.03-16.05
			c0-8.85,7.17-16.04,16.03-16.04c8.84,0,16.01,7.18,16.01,16.04C232.33,86.77,225.16,93.96,216.32,93.96z M254.79,87.3v9.37
			l-13.49-9.24c0.24-0.64,0.46-1.3,0.66-1.96l12.83,1.26V87.3z M254.79,75.06v7.56l-11.8-3.04c0.03-0.55,0.06-1.11,0.06-1.68
			c0-0.13-0.01-0.26-0.01-0.39l11.75-3.02V75.06z M254.79,67.82l-13.22,1.3c-0.23-0.65-0.48-1.3-0.75-1.93l13.98-9.59V67.82z
			 M284.65,71.15c0,4.11-3,6.91-8.23,6.91h-10.89V64.02h10.68c5.23,0,8.44,2.38,8.44,6.99V71.15z"/>
	</g>
</g>
</svg>
